<mxfile host="app.diagrams.net" modified="2023-04-07T01:23:15.317Z" agent="Mozilla/5.0 (Windows NT 10.0; Win64; x64) AppleWebKit/537.36 (KHTML, like Gecko) Chrome/111.0.0.0 Safari/537.36" etag="lahShU6WqkoWPCa1Vjti" version="21.1.1" type="device">
  <diagram name="Trang-1" id="OnYV7jFH2yONVQegw-Og">
    <mxGraphModel dx="1290" dy="581" grid="1" gridSize="10" guides="1" tooltips="1" connect="1" arrows="1" fold="1" page="1" pageScale="1" pageWidth="827" pageHeight="1169" math="0" shadow="0">
      <root>
        <mxCell id="0" />
        <mxCell id="1" parent="0" />
        <mxCell id="wM33AacprSD3bpffsVfW-1" value="Authentication" style="shape=umlFrame;whiteSpace=wrap;html=1;pointerEvents=0;width=100;height=20;" vertex="1" parent="1">
          <mxGeometry x="160" y="40" width="440" height="480" as="geometry" />
        </mxCell>
        <mxCell id="wM33AacprSD3bpffsVfW-2" value="Client" style="shape=umlActor;verticalLabelPosition=bottom;verticalAlign=top;html=1;" vertex="1" parent="1">
          <mxGeometry x="40" y="120" width="30" height="60" as="geometry" />
        </mxCell>
        <mxCell id="wM33AacprSD3bpffsVfW-3" value="Login" style="ellipse;whiteSpace=wrap;html=1;" vertex="1" parent="1">
          <mxGeometry x="210" y="120" width="140" height="70" as="geometry" />
        </mxCell>
      </root>
    </mxGraphModel>
  </diagram>
</mxfile>
